<svg height="2000" width="3000" xmlns="http://www.w3.org/2000/svg"><g font-family="Arial"><text dominant-baseline="alphabetic" fill="#32628c" font-size="169" transform="matrix(.9781476 .20791169 -.20791169 .9781476 1503 999)" x="-596.533691" y="-67.6">(Spear)phishing</text><text dominant-baseline="alphabetic" fill="#30588c" font-size="112" transform="matrix(.9781476 -.20791169 .20791169 .9781476 1512 1323)" x="-818.480469" y="-44.982">Scalable ICS Attack Frameworks</text><text dominant-baseline="alphabetic" fill="#03318c" font-size="112" transform="matrix(.9781476 .20791169 -.20791169 .9781476 1512 1098)" x="-361.019531" y="-44.982">0-Day Exploits</text><text dominant-baseline="alphabetic" fill="#32628c" font-size="112" transform="matrix(.9781476 .20791169 -.20791169 .9781476 1503 837)" x="-329.902344" y="-44.982">Ransomware</text><text dominant-baseline="alphabetic" fill="#03318c" font-size="112" transform="translate(1503 657)" x="-772.925781" y="-44.982">Exploit Windows Vulnerabilities</text><text dominant-baseline="alphabetic" fill="#32628c" font-size="112" transform="matrix(.9781476 -.20791169 .20791169 .9781476 1665 1395)" x="-660.898438" y="-44.982">Exploit AAD Vulnerabilities</text><text dominant-baseline="alphabetic" fill="#61a2ca" font-size="112" transform="matrix(.9781476 -.20791169 .20791169 .9781476 1134 1287)" x="-466.976563" y="-44.982">Social Engineering</text><text dominant-baseline="alphabetic" fill="#03318c" font-size="112" transform="matrix(.9781476 .20791169 -.20791169 .9781476 1125 1098)" x="-267.613281" y="-44.982">Wiperware</text><g font-size="56"><text dominant-baseline="alphabetic" fill="#61a2ca" transform="translate(1602 702)" x="-317.009766" y="-22.491">Living Off The Land Tools</text><text dominant-baseline="alphabetic" fill="#021f59" transform="matrix(.9781476 .20791169 -.20791169 .9781476 1872 810)" x="-263.005859" y="-22.491">Malware Obfuscation</text><text dominant-baseline="alphabetic" fill="#021f59" transform="translate(1125 1152)" x="-219.447266" y="-22.491">Digital Signatures</text><text dominant-baseline="alphabetic" fill="#32628c" transform="matrix(.9781476 -.20791169 .20791169 .9781476 1494 1467)" x="-213.199219" y="-22.491">Malware Evasion</text><text dominant-baseline="alphabetic" fill="#61a2ca" transform="translate(900 936)" x="-212.666016" y="-22.491">RDP Brute Force</text><text dominant-baseline="alphabetic" fill="#30588c" transform="translate(2115 936)" x="-160.289063" y="-22.491">Cobalt Strike</text><text dominant-baseline="alphabetic" fill="#61a2ca" transform="translate(1971 756)" x="-183.640625" y="-22.491">SIS Tampering</text><text dominant-baseline="alphabetic" fill="#03318c" transform="matrix(.9781476 -.20791169 .20791169 .9781476 1683 1485)" x="-144.757813" y="-22.491">EternalBlue</text><text dominant-baseline="alphabetic" fill="#61a2ca" transform="matrix(.9781476 -.20791169 .20791169 .9781476 1845 1395)" x="-127.613281" y="-22.491">Metasploit</text><text dominant-baseline="alphabetic" fill="#30588c" transform="matrix(.9781476 -.20791169 .20791169 .9781476 810 1107)" x="-141.626953" y="-22.491">PowerShell</text><text dominant-baseline="alphabetic" fill="#03318c" transform="matrix(.9781476 -.20791169 .20791169 .9781476 810 855)" x="-136.896484" y="-22.491">Wipe HMIs</text><text dominant-baseline="alphabetic" fill="#021f59" transform="translate(1089 702)" x="-110.441406" y="-22.491">Mimikatz</text><text dominant-baseline="alphabetic" fill="#021f59" transform="matrix(.9781476 -.20791169 .20791169 .9781476 783 1008)" x="-94.923828" y="-22.491">PsExec</text><text dominant-baseline="alphabetic" fill="#32628c" transform="matrix(.9781476 .20791169 -.20791169 .9781476 1629 1179)" x="-54.46875" y="-22.491">DoS</text></g></g></svg>